<svg xmlns="http://www.w3.org/2000/svg" width="287" height="68" viewBox="0 0 287 68" fill="none">
<mask id="mask0_534_739" style="mask-type:luminance" maskUnits="userSpaceOnUse" x="0" y="0" width="69" height="69">
<path d="M68.745 0H0V68.4444H68.745V0Z" fill="white"/>
</mask>
<g mask="url(#mask0_534_739)">
<path d="M22.4707 57.2439L26.3252 58.8428L46.26 11.2054L42.4055 9.60645L22.4707 57.2439Z" fill="#FF95A9"/>
<path d="M36.4603 8.41602H32.2847V60.0219H36.4603V8.41602Z" fill="#FB9A6E"/>
<path d="M42.4123 58.8407L46.2669 57.2419L26.332 9.60449L22.4775 11.2034L42.4123 58.8407Z" fill="#FFC359"/>
<path d="M51.2243 53.9395L54.1771 50.9996L17.5263 14.5093L14.5737 17.449L51.2243 53.9395Z" fill="#A36C35"/>
<path d="M11.248 22.374L9.64209 26.2117L57.4887 46.0593L59.0946 42.2216L11.248 22.374Z" fill="#DDD7FF"/>
<path d="M60.2921 36.301V32.1436H8.45947V36.301H60.2921Z" fill="#A496ED"/>
<path d="M59.0983 26.2166L57.4924 22.3789L9.646 42.2265L11.2519 46.0642L59.0983 26.2166Z" fill="#7660D8"/>
<path d="M54.1766 17.4441L51.2238 14.5044L14.5732 50.9949L17.5258 53.9348L54.1766 17.4441Z" fill="#333377"/>
</g>
<path d="M78.744 23.6151C81.7793 23.6151 84.2045 24.5429 86.0197 26.3986C87.8349 28.2544 88.7428 30.799 88.7428 34.0324V35.5929C88.7428 38.8263 87.8493 41.3709 86.0623 43.2266C84.2752 45.0823 81.8356 46.0102 78.744 46.0102C75.6523 46.0102 73.2127 45.0823 71.4257 43.2266C69.6386 41.3709 68.7451 38.8263 68.7451 35.5929V34.0324C68.7451 30.799 69.653 28.2544 71.4682 26.3986C73.2834 24.5429 75.7087 23.6151 78.744 23.6151ZM78.744 26.7782C76.8437 26.7782 75.3683 27.4249 74.3189 28.7183C73.2696 30.0116 72.7447 31.9095 72.7447 34.412V35.2133C72.7447 37.6595 73.2552 39.5433 74.2764 40.8648C75.3257 42.1863 76.8149 42.847 78.744 42.847C80.6161 42.847 82.0771 42.2003 83.1264 40.907C84.2045 39.5855 84.7433 37.6876 84.7433 35.2133V34.412C84.7433 31.9658 84.2183 30.082 83.169 28.7605C82.1478 27.4389 80.673 26.7782 78.744 26.7782ZM102.198 23.6151C104.949 23.6151 107.104 24.6132 108.665 26.6095C110.225 28.6058 111.005 31.3472 111.005 34.8337V35.2976C111.005 38.6154 110.225 41.2303 108.665 43.1423C107.133 45.0542 104.977 46.0102 102.198 46.0102C99.5309 46.0102 97.446 44.9558 95.9431 42.847V53.2222H91.9435V24.0368H94.9219C95.1203 24.9366 95.3048 25.9206 95.475 26.9891C97.0919 24.7397 99.3325 23.6151 102.198 23.6151ZM101.474 26.7782C99.5453 26.7782 98.1268 27.4389 97.2195 28.7605C96.3398 30.082 95.9005 32.0923 95.9005 34.7915C95.9005 37.547 96.3542 39.5855 97.2621 40.907C98.1981 42.2003 99.6022 42.847 101.474 42.847C103.346 42.847 104.736 42.1863 105.644 40.8648C106.551 39.5433 107.006 37.5189 107.006 34.7915C107.006 32.0361 106.538 30.0116 105.602 28.7183C104.694 27.4249 103.318 26.7782 101.474 26.7782ZM122.919 23.6151C124.706 23.6151 126.28 23.9946 127.642 24.7538C129.031 25.4849 130.109 26.5392 130.875 27.917C131.641 29.2947 132.024 30.8973 132.024 32.7249V35.7194H116.834C116.891 37.9969 117.43 39.7542 118.451 40.9913C119.472 42.2285 120.99 42.847 123.004 42.847C124.791 42.847 126.11 42.3268 126.961 41.2865C127.812 40.2462 128.237 39.0091 128.237 37.5751H132.024C132.024 39.2621 131.627 40.7383 130.833 42.0035C130.067 43.2688 128.989 44.2529 127.599 44.9558C126.237 45.6587 124.678 46.0102 122.919 46.0102H122.748C119.685 46.0102 117.26 45.0401 115.473 43.1001C113.714 41.1319 112.835 38.517 112.835 35.2555V34.412C112.835 32.2751 113.232 30.3912 114.026 28.7605C114.82 27.1297 115.955 25.8644 117.43 24.9647C118.905 24.0649 120.635 23.6151 122.621 23.6151H122.919ZM122.706 26.7782C121.089 26.7782 119.77 27.2702 118.749 28.2544C117.756 29.2385 117.146 30.7005 116.919 32.6406H128.067V32.1345C128.067 30.5318 127.571 29.2385 126.578 28.2544C125.614 27.2702 124.323 26.7782 122.706 26.7782ZM146.008 23.6151C148.391 23.6151 150.263 24.2477 151.624 25.513C152.986 26.7782 153.667 28.6339 153.667 31.0801V45.5884H149.667V31.7971C149.667 28.4512 148.135 26.7782 145.072 26.7782C144.051 26.7782 143.101 27.0453 142.221 27.5795C141.342 28.1137 140.633 28.8448 140.094 29.7727C139.555 30.6724 139.285 31.6706 139.285 32.7671V45.5884H135.286V24.0368H138.179L138.732 27.2C140.548 24.8101 142.973 23.6151 146.008 23.6151ZM174.086 23.6151C175.703 23.6151 177.135 23.8681 178.384 24.3742C179.66 24.8803 180.639 25.5832 181.319 26.483C182.028 27.3828 182.383 28.3809 182.383 29.4774L182.341 30.2366H178.384V29.857C178.384 27.8045 176.781 26.7782 173.576 26.7782C170.399 26.7782 168.81 27.7202 168.81 29.604C168.81 30.4756 169.264 31.1223 170.172 31.544C171.08 31.9377 172.469 32.3173 174.342 32.6828C176.129 33.0483 177.59 33.4278 178.724 33.8215C179.887 34.2152 180.866 34.8337 181.66 35.6772C182.483 36.5207 182.894 37.6595 182.894 39.0934C182.894 41.399 182.1 43.1282 180.511 44.281C178.922 45.4338 176.639 46.0102 173.661 46.0102H173.023C171.236 46.0102 169.676 45.743 168.342 45.2088C167.009 44.6465 165.974 43.9014 165.236 42.9736C164.527 42.0176 164.187 40.9491 164.215 39.7682V38.8404H168.172V39.2621C168.172 41.652 170.2 42.847 174.256 42.847C175.448 42.847 176.512 42.5799 177.448 42.0457C178.412 41.5115 178.894 40.7804 178.894 39.8526C178.894 39.0653 178.625 38.4467 178.086 37.9969C177.575 37.547 176.937 37.2096 176.171 36.9847C175.405 36.7597 174.342 36.5348 172.98 36.3098C171.221 35.9724 169.803 35.635 168.725 35.2976C167.647 34.9321 166.725 34.3276 165.96 33.4841C165.194 32.6406 164.811 31.4878 164.811 30.0257C164.811 28.0294 165.605 26.4689 167.193 25.3443C168.782 24.1914 170.952 23.6151 173.703 23.6151H174.086ZM196.219 23.6151C198.97 23.6151 201.127 24.6132 202.686 26.6095C204.246 28.6058 205.027 31.3472 205.027 34.8337V35.2976C205.027 38.6154 204.246 41.2303 202.686 43.1423C201.155 45.0542 198.999 46.0102 196.219 46.0102C193.553 46.0102 191.468 44.9558 189.965 42.847V53.2222H185.965V24.0368H188.943C189.142 24.9366 189.326 25.9206 189.497 26.9891C191.113 24.7397 193.354 23.6151 196.219 23.6151ZM195.496 26.7782C193.567 26.7782 192.149 27.4389 191.241 28.7605C190.362 30.082 189.922 32.0923 189.922 34.7915C189.922 37.547 190.376 39.5855 191.284 40.907C192.22 42.2003 193.624 42.847 195.496 42.847C197.368 42.847 198.758 42.1863 199.666 40.8648C200.573 39.5433 201.027 37.5189 201.027 34.7915C201.027 32.0361 200.559 30.0116 199.623 28.7183C198.715 27.4249 197.34 26.7782 195.496 26.7782ZM218.004 23.6151C220.018 23.6151 221.592 24.2618 222.727 25.5551C223.862 26.8204 224.429 28.4231 224.429 30.3631L224.301 31.9658H220.77V31.0379C220.77 30.1944 220.557 29.4493 220.131 28.8026C219.706 28.1559 219.167 27.6639 218.514 27.3265C217.862 26.961 217.21 26.7782 216.557 26.7782C215.196 26.7782 214.132 27.3124 213.366 28.3809C212.6 29.4493 212.217 30.8973 212.217 32.7249V45.5884H208.218V24.0368H211.068L211.664 27.2421C211.834 26.6798 212.217 26.1175 212.813 25.5551C213.409 24.9928 214.146 24.5288 215.025 24.1633C215.933 23.7978 216.926 23.6151 218.004 23.6151ZM230.608 15.2222V18.8914H226.439V15.2222H230.608ZM230.523 24.0368V45.5884H226.524V24.0368H230.523ZM245.745 23.6151C248.128 23.6151 250 24.2477 251.362 25.513C252.723 26.7782 253.404 28.6339 253.404 31.0801V45.5884H249.405V31.7971C249.405 28.4512 247.873 26.7782 244.809 26.7782C243.788 26.7782 242.838 27.0453 241.959 27.5795C241.079 28.1137 240.37 28.8448 239.831 29.7727C239.292 30.6724 239.023 31.6706 239.023 32.7671V45.5884H235.023V24.0368H237.916L238.47 27.2C240.285 24.8101 242.711 23.6151 245.745 23.6151ZM262.165 24.0368H267.228V27.2H262.165V40.0635C262.165 41.0757 262.363 41.8067 262.76 42.2566C263.157 42.7064 263.767 42.9314 264.59 42.9314C265.327 42.9314 266.207 42.7205 267.228 42.2987V45.251C266.207 45.7571 264.888 46.0102 263.271 46.0102C261.597 46.0102 260.321 45.5182 259.442 44.534C258.591 43.5499 258.165 41.9894 258.165 39.8526V27.2H255.783V24.0368H258.293L259.654 17.1622H262.165V24.0368ZM277.938 23.6151C279.554 23.6151 280.987 23.8681 282.235 24.3742C283.511 24.8803 284.49 25.5832 285.171 26.483C285.88 27.3828 286.234 28.3809 286.234 29.4774L286.192 30.2366H282.235V29.857C282.235 27.8045 280.632 26.7782 277.427 26.7782C274.25 26.7782 272.662 27.7202 272.662 29.604C272.662 30.4756 273.115 31.1223 274.023 31.544C274.93 31.9377 276.321 32.3173 278.193 32.6828C279.98 33.0483 281.44 33.4278 282.575 33.8215C283.738 34.2152 284.717 34.8337 285.511 35.6772C286.333 36.5207 286.745 37.6595 286.745 39.0934C286.745 41.399 285.95 43.1282 284.362 44.281C282.774 45.4338 280.49 46.0102 277.512 46.0102H276.874C275.087 46.0102 273.526 45.743 272.194 45.2088C270.86 44.6465 269.825 43.9014 269.088 42.9736C268.378 42.0176 268.038 40.9491 268.066 39.7682V38.8404H272.023V39.2621C272.023 41.652 274.051 42.847 278.108 42.847C279.299 42.847 280.363 42.5799 281.299 42.0457C282.263 41.5115 282.746 40.7804 282.746 39.8526C282.746 39.0653 282.476 38.4467 281.937 37.9969C281.427 37.547 280.788 37.2096 280.022 36.9847C279.257 36.7597 278.193 36.5348 276.831 36.3098C275.072 35.9724 273.654 35.635 272.577 35.2976C271.498 34.9321 270.577 34.3276 269.811 33.4841C269.045 32.6406 268.662 31.4878 268.662 30.0257C268.662 28.0294 269.456 26.4689 271.045 25.3443C272.633 24.1914 274.803 23.6151 277.555 23.6151H277.938Z" fill="#333377"/>
</svg>