<svg xmlns="http://www.w3.org/2000/svg" width="198" height="40" viewBox="0 0 198 40" fill="none">
<path d="M15.54 26.084L1.68 20.064V15.388L15.54 9.368V14.66L6.048 17.712L15.54 20.792V26.084ZM25.2704 11.72C26.8011 11.72 28.1358 12.0093 29.2744 12.588C30.4131 13.148 31.2998 13.9693 31.9344 15.052C32.5691 16.1347 32.8864 17.4507 32.8864 19C32.8864 20.5307 32.5691 21.8467 31.9344 22.948C31.2998 24.0307 30.4131 24.8613 29.2744 25.44C28.1358 26 26.8011 26.28 25.2704 26.28C23.7771 26.28 22.4518 26 21.2944 25.44C20.1558 24.8613 19.2598 24.0307 18.6064 22.948C17.9718 21.8467 17.6544 20.5307 17.6544 19C17.6544 17.4507 17.9718 16.1347 18.6064 15.052C19.2598 13.9693 20.1558 13.148 21.2944 12.588C22.4518 12.0093 23.7771 11.72 25.2704 11.72ZM25.2704 15.612C24.8598 15.612 24.5051 15.7147 24.2064 15.92C23.9264 16.1253 23.7118 16.48 23.5624 16.984C23.4131 17.488 23.3384 18.16 23.3384 19C23.3384 19.84 23.4131 20.512 23.5624 21.016C23.7118 21.5013 23.9264 21.856 24.2064 22.08C24.5051 22.2853 24.8598 22.388 25.2704 22.388C25.6998 22.388 26.0544 22.2853 26.3344 22.08C26.6144 21.856 26.8291 21.5013 26.9784 21.016C27.1278 20.512 27.2024 19.84 27.2024 19C27.2024 18.16 27.1278 17.488 26.9784 16.984C26.8291 16.48 26.6144 16.1253 26.3344 15.92C26.0544 15.7147 25.6998 15.612 25.2704 15.612ZM35.0048 31.88V12H40.1288L40.4088 17.656L39.7648 16.984C39.8581 15.9573 40.1195 15.052 40.5488 14.268C40.9781 13.484 41.5475 12.868 42.2568 12.42C42.9848 11.9533 43.8248 11.72 44.7768 11.72C45.9341 11.72 46.9235 12.0093 47.7448 12.588C48.5661 13.148 49.1915 13.9693 49.6208 15.052C50.0688 16.116 50.2928 17.4133 50.2928 18.944C50.2928 20.4747 50.0688 21.7907 49.6208 22.892C49.1728 23.9933 48.5288 24.8333 47.6888 25.412C46.8675 25.9907 45.8875 26.28 44.7488 26.28C43.4235 26.28 42.3781 25.8693 41.6128 25.048C40.8661 24.208 40.3808 23.1627 40.1568 21.912L40.6608 21.156V31.88H35.0048ZM42.5928 22.22C43.2275 22.22 43.7221 21.9867 44.0768 21.52C44.4315 21.0347 44.6088 20.1947 44.6088 19C44.6088 17.8053 44.4315 16.9653 44.0768 16.48C43.7221 15.9947 43.2368 15.752 42.6208 15.752C42.2288 15.752 41.8835 15.8733 41.5848 16.116C41.2861 16.3587 41.0528 16.7227 40.8848 17.208C40.7355 17.6747 40.6608 18.272 40.6608 19C40.6608 19.6907 40.7261 20.2787 40.8568 20.764C41.0061 21.2493 41.2301 21.6133 41.5288 21.856C41.8275 22.0987 42.1821 22.22 42.5928 22.22ZM59.7275 26.28C58.1222 26.28 56.7315 26 55.5555 25.44C54.3982 24.8613 53.5022 24.0307 52.8675 22.948C52.2515 21.8653 51.9435 20.5493 51.9435 19C51.9435 17.4507 52.2608 16.1347 52.8955 15.052C53.5302 13.9693 54.4168 13.148 55.5555 12.588C56.6942 12.0093 58.0102 11.72 59.5035 11.72C61.0342 11.72 62.3315 12.0093 63.3955 12.588C64.4782 13.148 65.2995 13.932 65.8595 14.94C66.4382 15.948 66.7275 17.124 66.7275 18.468C66.7275 18.7853 66.7088 19.1027 66.6715 19.42C66.6528 19.7373 66.6248 20.008 66.5875 20.232H55.5835V17.768H64.1235L61.4355 18.804C61.4355 17.74 61.2862 16.9373 60.9875 16.396C60.7075 15.836 60.2128 15.556 59.5035 15.556C59.0182 15.556 58.6075 15.668 58.2715 15.892C57.9542 16.116 57.7115 16.4893 57.5435 17.012C57.3942 17.5347 57.3195 18.2253 57.3195 19.084C57.3195 19.9427 57.4128 20.624 57.5995 21.128C57.8048 21.6133 58.0848 21.9493 58.4395 22.136C58.7942 22.3227 59.2422 22.416 59.7835 22.416C60.3808 22.416 60.8475 22.2947 61.1835 22.052C61.5195 21.8093 61.7622 21.4733 61.9115 21.044L66.4475 22.388C66.2235 23.2467 65.7662 23.9653 65.0755 24.544C64.4035 25.1227 63.6008 25.5613 62.6675 25.86C61.7342 26.14 60.7542 26.28 59.7275 26.28ZM68.8017 26V12H73.8977L74.1497 17.404L73.5617 16.788C73.711 15.7053 74.019 14.7907 74.4857 14.044C74.9524 13.2787 75.5497 12.7 76.2777 12.308C77.0244 11.916 77.883 11.72 78.8537 11.72C79.8057 11.72 80.6177 11.9067 81.2897 12.28C81.9804 12.6347 82.5124 13.176 82.8857 13.904C83.259 14.6133 83.4457 15.4907 83.4457 16.536V26H77.7897V17.992C77.7897 17.208 77.659 16.676 77.3977 16.396C77.155 16.0973 76.8004 15.948 76.3337 15.948C75.979 15.948 75.6524 16.0413 75.3537 16.228C75.0737 16.396 74.8497 16.676 74.6817 17.068C74.5324 17.46 74.4577 17.9733 74.4577 18.608V26H68.8017Z" fill="#2A00FF"/>
<path d="M92.353 26.28C90.9716 26.28 89.665 26.0747 88.433 25.664C87.201 25.2533 86.1463 24.6467 85.269 23.844L87.537 20.848C88.041 21.352 88.685 21.7907 89.469 22.164C90.2716 22.5373 91.1116 22.724 91.989 22.724C92.437 22.724 92.8103 22.668 93.109 22.556C93.4263 22.444 93.585 22.248 93.585 21.968C93.585 21.7813 93.501 21.632 93.333 21.52C93.1836 21.3893 92.857 21.2773 92.353 21.184L90.897 20.904C88.993 20.5307 87.6396 19.9893 86.837 19.28C86.053 18.552 85.661 17.6 85.661 16.424C85.661 15.6587 85.8943 14.9213 86.361 14.212C86.8463 13.484 87.6023 12.8867 88.629 12.42C89.6743 11.9533 91.0183 11.72 92.661 11.72C94.0983 11.72 95.377 11.916 96.497 12.308C97.6356 12.6813 98.541 13.2227 99.213 13.932L97.001 16.844C96.497 16.3587 95.8623 15.976 95.097 15.696C94.3316 15.416 93.6036 15.276 92.913 15.276C92.5583 15.276 92.2596 15.304 92.017 15.36C91.7743 15.416 91.5876 15.5 91.457 15.612C91.345 15.7053 91.289 15.836 91.289 16.004C91.289 16.1907 91.3916 16.3587 91.597 16.508C91.821 16.6387 92.2223 16.76 92.801 16.872L95.041 17.264C96.5156 17.5253 97.589 18.0107 98.261 18.72C98.933 19.4293 99.269 20.2973 99.269 21.324C99.269 22.2387 99.0263 23.0693 98.541 23.816C98.0556 24.5627 97.2996 25.16 96.273 25.608C95.265 26.056 93.9583 26.28 92.353 26.28ZM101.177 31.88V12H106.301L106.581 17.656L105.937 16.984C106.03 15.9573 106.291 15.052 106.721 14.268C107.15 13.484 107.719 12.868 108.429 12.42C109.157 11.9533 109.997 11.72 110.949 11.72C112.106 11.72 113.095 12.0093 113.917 12.588C114.738 13.148 115.363 13.9693 115.793 15.052C116.241 16.116 116.465 17.4133 116.465 18.944C116.465 20.4747 116.241 21.7907 115.793 22.892C115.345 23.9933 114.701 24.8333 113.861 25.412C113.039 25.9907 112.059 26.28 110.921 26.28C109.595 26.28 108.55 25.8693 107.785 25.048C107.038 24.208 106.553 23.1627 106.329 21.912L106.833 21.156V31.88H101.177ZM108.765 22.22C109.399 22.22 109.894 21.9867 110.249 21.52C110.603 21.0347 110.781 20.1947 110.781 19C110.781 17.8053 110.603 16.9653 110.249 16.48C109.894 15.9947 109.409 15.752 108.793 15.752C108.401 15.752 108.055 15.8733 107.757 16.116C107.458 16.3587 107.225 16.7227 107.057 17.208C106.907 17.6747 106.833 18.272 106.833 19C106.833 19.6907 106.898 20.2787 107.029 20.764C107.178 21.2493 107.402 21.6133 107.701 21.856C107.999 22.0987 108.354 22.22 108.765 22.22ZM118.731 26V12H123.799L123.967 15.276C124.285 14.1747 124.779 13.3067 125.451 12.672C126.142 12.0373 127.038 11.72 128.139 11.72C128.531 11.72 128.849 11.7573 129.091 11.832C129.334 11.888 129.511 11.9627 129.623 12.056L129.119 16.648C128.933 16.5733 128.69 16.508 128.391 16.452C128.093 16.396 127.747 16.368 127.355 16.368C126.795 16.368 126.291 16.4707 125.843 16.676C125.395 16.8813 125.041 17.1893 124.779 17.6C124.518 17.992 124.387 18.496 124.387 19.112V26H118.731ZM133.782 10.768C132.662 10.768 131.85 10.572 131.346 10.18C130.861 9.788 130.618 9.15333 130.618 8.276C130.618 7.38 130.861 6.736 131.346 6.344C131.85 5.952 132.662 5.756 133.782 5.756C134.902 5.756 135.705 5.952 136.19 6.344C136.694 6.736 136.946 7.38 136.946 8.276C136.946 9.15333 136.694 9.788 136.19 10.18C135.705 10.572 134.902 10.768 133.782 10.768ZM136.61 12V26H130.954V12H136.61ZM139.349 26V12H144.445L144.697 17.404L144.109 16.788C144.258 15.7053 144.566 14.7907 145.033 14.044C145.499 13.2787 146.097 12.7 146.825 12.308C147.571 11.916 148.43 11.72 149.401 11.72C150.353 11.72 151.165 11.9067 151.837 12.28C152.527 12.6347 153.059 13.176 153.433 13.904C153.806 14.6133 153.993 15.4907 153.993 16.536V26H148.337V17.992C148.337 17.208 148.206 16.676 147.945 16.396C147.702 16.0973 147.347 15.948 146.881 15.948C146.526 15.948 146.199 16.0413 145.901 16.228C145.621 16.396 145.397 16.676 145.229 17.068C145.079 17.46 145.005 17.9733 145.005 18.608V26H139.349ZM163.489 7.38V20.624C163.489 21.2773 163.629 21.744 163.909 22.024C164.207 22.304 164.646 22.444 165.225 22.444C165.635 22.444 165.99 22.4067 166.289 22.332C166.587 22.2573 166.867 22.136 167.129 21.968L167.493 25.272C167.045 25.5893 166.438 25.832 165.673 26C164.907 26.1867 164.161 26.28 163.433 26.28C162.238 26.28 161.221 26.1213 160.381 25.804C159.559 25.4867 158.925 24.9827 158.477 24.292C158.047 23.6013 157.833 22.6773 157.833 21.52V8.948L163.489 7.38ZM167.297 12V15.892H155.537V12H167.297ZM180.831 6.232L173.243 27.96H168.007L175.595 6.232H180.831ZM182.47 9.368L196.33 15.388V20.064L182.47 26.084V20.792L191.962 17.74L182.47 14.66V9.368Z" fill="black"/>
<path d="M109 38.2439V32H110.101V34.3354H110.147C110.203 34.2215 110.284 34.1006 110.387 33.9726C110.49 33.8425 110.63 33.7317 110.807 33.6402C110.983 33.5467 111.208 33.5 111.482 33.5C111.843 33.5 112.168 33.5925 112.458 33.7774C112.75 33.9604 112.982 34.2317 113.152 34.5915C113.324 34.9492 113.41 35.3882 113.41 35.9085C113.41 36.4228 113.326 36.8598 113.158 37.2195C112.99 37.5793 112.761 37.8537 112.471 38.0427C112.181 38.2317 111.852 38.3262 111.485 38.3262C111.217 38.3262 110.995 38.2815 110.819 38.1921C110.643 38.1026 110.501 37.9949 110.393 37.8689C110.288 37.7409 110.206 37.6199 110.147 37.5061H110.083V38.2439H109ZM110.08 35.9024C110.08 36.2053 110.122 36.4705 110.208 36.6982C110.295 36.9258 110.419 37.1037 110.582 37.2317C110.746 37.3577 110.945 37.4207 111.178 37.4207C111.421 37.4207 111.625 37.3557 111.789 37.2256C111.953 37.0935 112.077 36.9136 112.16 36.686C112.245 36.4563 112.288 36.1951 112.288 35.9024C112.288 35.6118 112.247 35.3537 112.163 35.128C112.08 34.9024 111.957 34.7256 111.792 34.5976C111.628 34.4695 111.423 34.4055 111.178 34.4055C110.943 34.4055 110.743 34.4675 110.579 34.5915C110.414 34.7154 110.29 34.8892 110.205 35.1128C110.121 35.3364 110.08 35.5996 110.08 35.9024Z" fill="#808080"/>
<path d="M114.872 40C114.722 40 114.583 39.9878 114.455 39.9634C114.33 39.9411 114.229 39.9146 114.154 39.8841L114.41 39.0244C114.57 39.0711 114.713 39.0935 114.839 39.0915C114.964 39.0894 115.075 39.0498 115.17 38.9726C115.267 38.8974 115.35 38.7713 115.416 38.5945L115.511 38.3415L113.817 33.561H114.985L116.061 37.0976H116.11L117.19 33.561H118.361L116.49 38.811C116.403 39.0589 116.287 39.2713 116.143 39.4482C115.999 39.627 115.823 39.7632 115.614 39.8567C115.407 39.9522 115.16 40 114.872 40Z" fill="#808080"/>
<path d="M121.296 38.2439V32H125.287V32.9482H122.425V34.6433H125.013V35.5915H122.425V38.2439H121.296Z" fill="#808080"/>
<path d="M127.992 38.3354C127.523 38.3354 127.119 38.2378 126.778 38.0427C126.439 37.8455 126.179 37.5671 125.996 37.2073C125.814 36.8455 125.723 36.4197 125.723 35.9299C125.723 35.4482 125.814 35.0254 125.996 34.6616C126.181 34.2957 126.438 34.0112 126.769 33.8079C127.099 33.6026 127.488 33.5 127.934 33.5C128.222 33.5 128.493 33.5467 128.749 33.6402C129.007 33.7317 129.234 33.874 129.43 34.0671C129.629 34.2602 129.785 34.5061 129.899 34.8049C130.012 35.1016 130.069 35.4553 130.069 35.8659V36.2043H126.24V35.4604H129.014C129.012 35.249 128.966 35.061 128.877 34.8963C128.788 34.7297 128.663 34.5986 128.503 34.503C128.344 34.4075 128.16 34.3598 127.949 34.3598C127.724 34.3598 127.526 34.4146 127.356 34.5244C127.186 34.6321 127.053 34.7744 126.957 34.9512C126.864 35.126 126.817 35.3181 126.814 35.5274V36.1768C126.814 36.4492 126.864 36.6829 126.964 36.878C127.063 37.0711 127.202 37.2195 127.38 37.3232C127.559 37.4248 127.768 37.4756 128.007 37.4756C128.167 37.4756 128.312 37.4533 128.442 37.4085C128.572 37.3618 128.684 37.2937 128.779 37.2043C128.875 37.1148 128.947 37.0041 128.995 36.872L130.023 36.9878C129.959 37.2602 129.835 37.498 129.652 37.7012C129.472 37.9024 129.241 38.0589 128.959 38.1707C128.677 38.2805 128.355 38.3354 127.992 38.3354Z" fill="#808080"/>
<path d="M131.001 38.2439V33.561H132.053V34.3567H132.108C132.205 34.0884 132.366 33.8791 132.591 33.7287C132.817 33.5762 133.085 33.5 133.397 33.5C133.714 33.5 133.98 33.5772 134.197 33.7317C134.416 33.8841 134.571 34.0925 134.66 34.3567H134.708C134.812 34.0965 134.986 33.8892 135.232 33.7348C135.479 33.5783 135.772 33.5 136.111 33.5C136.541 33.5 136.891 33.6362 137.163 33.9085C137.435 34.1809 137.571 34.5783 137.571 35.1006V38.2439H136.467V35.2713C136.467 34.9807 136.389 34.7683 136.235 34.6341C136.081 34.498 135.893 34.4299 135.67 34.4299C135.404 34.4299 135.196 34.5132 135.046 34.6799C134.898 34.8445 134.824 35.0589 134.824 35.3232V38.2439H133.744V35.2256C133.744 34.9837 133.671 34.7907 133.525 34.6463C133.381 34.502 133.193 34.4299 132.959 34.4299C132.801 34.4299 132.657 34.4705 132.528 34.5518C132.398 34.6311 132.294 34.7439 132.217 34.8902C132.14 35.0346 132.102 35.2033 132.102 35.3963V38.2439H131.001Z" fill="#808080"/>
<path d="M138.688 38.2439V33.561H139.74V34.3567H139.795C139.892 34.0884 140.053 33.8791 140.279 33.7287C140.504 33.5762 140.772 33.5 141.085 33.5C141.401 33.5 141.668 33.5772 141.885 33.7317C142.104 33.8841 142.258 34.0925 142.347 34.3567H142.396C142.499 34.0965 142.673 33.8892 142.919 33.7348C143.166 33.5783 143.459 33.5 143.798 33.5C144.228 33.5 144.579 33.6362 144.85 33.9085C145.122 34.1809 145.258 34.5783 145.258 35.1006V38.2439H144.154V35.2713C144.154 34.9807 144.077 34.7683 143.923 34.6341C143.768 34.498 143.58 34.4299 143.357 34.4299C143.091 34.4299 142.883 34.5132 142.733 34.6799C142.585 34.8445 142.511 35.0589 142.511 35.3232V38.2439H141.431V35.2256C141.431 34.9837 141.358 34.7907 141.212 34.6463C141.068 34.502 140.88 34.4299 140.647 34.4299C140.488 34.4299 140.344 34.4705 140.215 34.5518C140.085 34.6311 139.981 34.7439 139.904 34.8902C139.827 35.0346 139.789 35.2033 139.789 35.3963V38.2439H138.688Z" fill="#808080"/>
<path d="M148.443 38.3354C147.975 38.3354 147.57 38.2378 147.23 38.0427C146.891 37.8455 146.63 37.5671 146.448 37.2073C146.265 36.8455 146.174 36.4197 146.174 35.9299C146.174 35.4482 146.265 35.0254 146.448 34.6616C146.632 34.2957 146.89 34.0112 147.22 33.8079C147.551 33.6026 147.939 33.5 148.385 33.5C148.673 33.5 148.945 33.5467 149.201 33.6402C149.458 33.7317 149.685 33.874 149.882 34.0671C150.081 34.2602 150.237 34.5061 150.35 34.8049C150.464 35.1016 150.521 35.4553 150.521 35.8659V36.2043H146.691V35.4604H149.465C149.463 35.249 149.418 35.061 149.328 34.8963C149.239 34.7297 149.114 34.5986 148.954 34.503C148.796 34.4075 148.612 34.3598 148.401 34.3598C148.176 34.3598 147.978 34.4146 147.808 34.5244C147.637 34.6321 147.504 34.7744 147.409 34.9512C147.316 35.126 147.268 35.3181 147.266 35.5274V36.1768C147.266 36.4492 147.316 36.6829 147.415 36.878C147.515 37.0711 147.653 37.2195 147.832 37.3232C148.01 37.4248 148.219 37.4756 148.458 37.4756C148.619 37.4756 148.764 37.4533 148.893 37.4085C149.023 37.3618 149.136 37.2937 149.231 37.2043C149.326 37.1148 149.398 37.0041 149.447 36.872L150.475 36.9878C150.41 37.2602 150.287 37.498 150.104 37.7012C149.924 37.9024 149.692 38.0589 149.41 38.1707C149.129 38.2805 148.806 38.3354 148.443 38.3354Z" fill="#808080"/>
<path d="M153.49 38.3354C153.024 38.3354 152.623 38.2327 152.289 38.0274C151.956 37.8222 151.7 37.5386 151.519 37.1768C151.341 36.813 151.251 36.3943 151.251 35.9207C151.251 35.4451 151.343 35.0254 151.525 34.6616C151.708 34.2957 151.965 34.0112 152.298 33.8079C152.632 33.6026 153.028 33.5 153.484 33.5C153.863 33.5 154.199 33.5701 154.491 33.7104C154.785 33.8486 155.019 34.0447 155.194 34.2988C155.368 34.5508 155.467 34.8455 155.492 35.1829H154.439C154.397 34.9573 154.295 34.7693 154.135 34.6189C153.977 34.4665 153.765 34.3902 153.499 34.3902C153.274 34.3902 153.077 34.4512 152.906 34.5732C152.736 34.6931 152.603 34.8659 152.508 35.0915C152.414 35.3171 152.368 35.5874 152.368 35.9024C152.368 36.2215 152.414 36.4959 152.508 36.7256C152.601 36.9533 152.732 37.1291 152.9 37.253C153.07 37.375 153.27 37.436 153.499 37.436C153.662 37.436 153.807 37.4055 153.934 37.3445C154.064 37.2815 154.173 37.1911 154.26 37.0732C154.347 36.9553 154.407 36.812 154.439 36.6433H155.492C155.465 36.9746 155.368 37.2683 155.2 37.5244C155.031 37.7785 154.802 37.9776 154.512 38.122C154.222 38.2642 153.882 38.3354 153.49 38.3354Z" fill="#808080"/>
<path d="M159.374 36.2744V33.561H160.475V38.2439H159.407V37.4116H159.358C159.253 37.6738 159.08 37.8882 158.838 38.0549C158.599 38.2215 158.304 38.3049 157.953 38.3049C157.647 38.3049 157.376 38.2368 157.141 38.1006C156.908 37.9624 156.725 37.7622 156.593 37.5C156.462 37.2358 156.396 36.9167 156.396 36.5427V33.561H157.497V36.372C157.497 36.6687 157.578 36.9045 157.74 37.0793C157.902 37.2541 158.115 37.3415 158.379 37.3415C158.541 37.3415 158.698 37.3018 158.85 37.2226C159.003 37.1433 159.127 37.0254 159.225 36.8689C159.324 36.7104 159.374 36.5122 159.374 36.2744Z" fill="#808080"/>
<path d="M161.656 38.2439V32H162.757V34.3354H162.802C162.859 34.2215 162.939 34.1006 163.043 33.9726C163.146 33.8425 163.286 33.7317 163.462 33.6402C163.639 33.5467 163.864 33.5 164.138 33.5C164.499 33.5 164.824 33.5925 165.114 33.7774C165.406 33.9604 165.637 34.2317 165.808 34.5915C165.98 34.9492 166.066 35.3882 166.066 35.9085C166.066 36.4228 165.982 36.8598 165.814 37.2195C165.645 37.5793 165.416 37.8537 165.126 38.0427C164.836 38.2317 164.508 38.3262 164.141 38.3262C163.873 38.3262 163.651 38.2815 163.475 38.1921C163.298 38.1026 163.156 37.9949 163.049 37.8689C162.943 37.7409 162.861 37.6199 162.802 37.5061H162.738V38.2439H161.656ZM162.735 35.9024C162.735 36.2053 162.778 36.4705 162.863 36.6982C162.95 36.9258 163.075 37.1037 163.237 37.2317C163.402 37.3577 163.6 37.4207 163.833 37.4207C164.077 37.4207 164.281 37.3557 164.445 37.2256C164.609 37.0935 164.733 36.9136 164.816 36.686C164.901 36.4563 164.944 36.1951 164.944 35.9024C164.944 35.6118 164.902 35.3537 164.819 35.128C164.736 34.9024 164.612 34.7256 164.448 34.5976C164.284 34.4695 164.079 34.4055 163.833 34.4055C163.598 34.4055 163.399 34.4675 163.234 34.5915C163.07 34.7154 162.945 34.8892 162.86 35.1128C162.777 35.3364 162.735 35.5996 162.735 35.9024Z" fill="#808080"/>
<path d="M168.347 38.3384C168.051 38.3384 167.784 38.2856 167.547 38.1799C167.311 38.0722 167.125 37.9136 166.987 37.7043C166.851 37.4949 166.783 37.2368 166.783 36.9299C166.783 36.6657 166.832 36.4472 166.929 36.2744C167.027 36.1016 167.159 35.9634 167.328 35.8598C167.496 35.7561 167.686 35.6778 167.896 35.625C168.109 35.5701 168.329 35.5305 168.556 35.5061C168.83 35.4776 169.052 35.4522 169.223 35.4299C169.393 35.4055 169.517 35.3689 169.594 35.3201C169.673 35.2693 169.712 35.1911 169.712 35.0854V35.0671C169.712 34.8374 169.644 34.6596 169.509 34.5335C169.373 34.4075 169.177 34.3445 168.921 34.3445C168.652 34.3445 168.438 34.4035 168.28 34.5213C168.124 34.6392 168.018 34.7785 167.963 34.939L166.935 34.7927C167.016 34.5081 167.15 34.2703 167.337 34.0793C167.523 33.8862 167.751 33.7419 168.021 33.6463C168.291 33.5488 168.589 33.5 168.915 33.5C169.14 33.5 169.365 33.5264 169.588 33.5793C169.811 33.6321 170.014 33.7195 170.199 33.8415C170.384 33.9614 170.532 34.125 170.643 34.3323C170.757 34.5396 170.813 34.7988 170.813 35.1098V38.2439H169.755V37.6006H169.718C169.651 37.7307 169.557 37.8526 169.436 37.9665C169.316 38.0783 169.165 38.1687 168.982 38.2378C168.802 38.3049 168.59 38.3384 168.347 38.3384ZM168.633 37.5274C168.854 37.5274 169.045 37.4837 169.207 37.3963C169.37 37.3069 169.494 37.189 169.582 37.0427C169.671 36.8963 169.715 36.7368 169.715 36.564V36.0122C169.681 36.0407 169.622 36.0671 169.539 36.0915C169.458 36.1159 169.367 36.1372 169.265 36.1555C169.164 36.1738 169.063 36.19 168.964 36.2043C168.865 36.2185 168.779 36.2307 168.706 36.2409C168.541 36.2632 168.394 36.2998 168.264 36.3506C168.135 36.4014 168.032 36.4726 167.957 36.564C167.882 36.6535 167.845 36.7693 167.845 36.9116C167.845 37.1148 167.919 37.2683 168.067 37.372C168.215 37.4756 168.403 37.5274 168.633 37.5274Z" fill="#808080"/>
<path d="M174.254 33.561V34.4146H171.568V33.561H174.254ZM172.231 32.439H173.332V36.8354C173.332 36.9837 173.354 37.0976 173.399 37.1768C173.446 37.2541 173.506 37.3069 173.581 37.3354C173.656 37.3638 173.74 37.378 173.831 37.378C173.9 37.378 173.963 37.373 174.019 37.3628C174.078 37.3526 174.123 37.3435 174.153 37.3354L174.339 38.1982C174.28 38.2185 174.196 38.2409 174.086 38.2652C173.979 38.2896 173.847 38.3039 173.691 38.3079C173.415 38.3161 173.167 38.2744 172.946 38.1829C172.725 38.0894 172.549 37.9451 172.419 37.75C172.292 37.5549 172.229 37.311 172.231 37.0183V32.439Z" fill="#808080"/>
<path d="M177.162 38.3354C176.706 38.3354 176.311 38.2348 175.976 38.0335C175.641 37.8323 175.382 37.5508 175.197 37.189C175.015 36.8272 174.924 36.4045 174.924 35.9207C174.924 35.437 175.015 35.0132 175.197 34.6494C175.382 34.2856 175.641 34.003 175.976 33.8018C176.311 33.6006 176.706 33.5 177.162 33.5C177.618 33.5 178.014 33.6006 178.348 33.8018C178.683 34.003 178.942 34.2856 179.124 34.6494C179.309 35.0132 179.401 35.437 179.401 35.9207C179.401 36.4045 179.309 36.8272 179.124 37.189C178.942 37.5508 178.683 37.8323 178.348 38.0335C178.014 38.2348 177.618 38.3354 177.162 38.3354ZM177.168 37.4512C177.416 37.4512 177.623 37.3831 177.789 37.247C177.955 37.1087 178.079 36.9238 178.16 36.6921C178.243 36.4604 178.285 36.2022 178.285 35.9177C178.285 35.6311 178.243 35.372 178.16 35.1402C178.079 34.9065 177.955 34.7205 177.789 34.5823C177.623 34.4441 177.416 34.375 177.168 34.375C176.915 34.375 176.704 34.4441 176.536 34.5823C176.369 34.7205 176.245 34.9065 176.161 35.1402C176.08 35.372 176.04 35.6311 176.04 35.9177C176.04 36.2022 176.08 36.4604 176.161 36.6921C176.245 36.9238 176.369 37.1087 176.536 37.247C176.704 37.3831 176.915 37.4512 177.168 37.4512Z" fill="#808080"/>
<path d="M180.335 38.2439V33.561H181.403V34.3415H181.452C181.537 34.0711 181.683 33.8628 181.89 33.7165C182.099 33.5681 182.337 33.4939 182.605 33.4939C182.665 33.4939 182.733 33.497 182.808 33.503C182.885 33.5071 182.949 33.5142 183 33.5244V34.5396C182.953 34.5234 182.879 34.5091 182.778 34.497C182.679 34.4827 182.582 34.4756 182.489 34.4756C182.288 34.4756 182.108 34.5193 181.948 34.6067C181.789 34.6921 181.665 34.811 181.573 34.9634C181.482 35.1159 181.437 35.2917 181.437 35.4909V38.2439H180.335Z" fill="#808080"/>
</svg>